PathFileType	4	(X/Y/Z)	c:/Users/goper/Files/vsCode/490R/osim_files/A03/A03_Fast_05.trc
DataRate	CameraRate	NumFrames	NumMarkers	Units                	OrigDataRate	OrigDataStartFrame	OrigNumFrames
250.00	250.00	7	36	mm	250.0	1302	2602
                Frame#	Time	LPSIS			LASIS			LTH1			LTH2			LTH3			LTH4			LLFE			LMFE			LSH1			LSH2			LSH3			LSH4			LLMAL			LMMAL			LCAL			LMTP5			LTOE			LMTP1			RPSIS			RASIS			RTH1			RTH2			RTH3			RTH4			RLFE			RMFE			RSH1			RSH2			RSH3			RSH4			RLMAL			RMMAL			RCAL			RMTP1			RTOE			RMTP5		
		X1	Y1	Z1	X2	Y2	Z2	X3	Y3	Z3	X4	Y4	Z4	X5	Y5	Z5	X6	Y6	Z6	X7	Y7	Z7	X8	Y8	Z8	X9	Y9	Z9	X10	Y10	Z10	X11	Y11	Z11	X12	Y12	Z12	X13	Y13	Z13	X14	Y14	Z14	X15	Y15	Z15	X16	Y16	Z16	X17	Y17	Z17	X18	Y18	Z18	X19	Y19	Z19	X20	Y20	Z20	X21	Y21	Z21	X22	Y22	Z22	X23	Y23	Z23	X24	Y24	Z24	X25	Y25	Z25	X26	Y26	Z26	X27	Y27	Z27	X28	Y28	Z28	X29	Y29	Z29	X30	Y30	Z30	X31	Y31	Z31	X32	Y32	Z32	X33	Y33	Z33	X34	Y34	Z34	X35	Y35	Z35	X36	Y36	Z36

1302	5.20400	-956.71497	1083.85303	296.57535	-1189.12292	988.60364	425.01465	-1149.91541	634.28015	452.75803	-1161.57568	593.10931	449.89151	-1209.65588	644.34473	434.49777	-1211.44458	601.67175	432.44659	-1158.62561	547.04419	439.67313	-1179.69592	548.59717	284.24191	-1111.71619	463.99823	434.09592	-1111.63904	415.62927	430.20633	-1173.40955	455.12146	427.58163	-1161.94849	409.50018	420.18872	-1091.43030	96.26318	376.29474	-1099.88977	105.06087	279.66849	-1021.32715	83.19214	325.16580	-1243.26184	41.85527	381.22867	-1268.68066	72.87272	312.27811	-1237.82715	53.23915	267.17899	-960.37292	1085.97290	212.91353	-1202.74609	989.25488	127.55952	-1217.44458	640.55457	48.91292	-1225.35620	597.16089	53.19408	-1278.26013	646.44946	54.88173	-1279.15979	602.38171	59.11436	-1249.25427	565.85101	67.92157	-1280.74194	565.80786	191.64655	-1177.21790	538.45520	62.61367	-1153.48352	504.70230	50.63544	-1224.56055	496.67749	64.37476	-1190.55835	465.80359	52.96098	-971.08484	253.40692	102.39462	0.00000	0.00000	0.00000	-901.58282	262.58987	153.92183	-1032.61926	92.82210	208.22119	-1068.62854	89.35382	162.03532	-1023.61334	83.23309	92.90694
1303	5.20800	-961.98267	1084.24829	296.46841	-1192.84143	988.14496	425.22266	-1151.93396	634.67993	452.01312	-1163.12231	593.01733	449.49841	-1211.87341	643.78619	434.22266	-1212.54236	600.07965	433.22253	-1159.92517	547.09882	439.18253	-1181.10291	548.45697	283.73889	-1112.80420	464.18484	433.69934	-1112.52417	415.82266	429.83539	-1174.52283	455.15860	427.14178	-1162.84106	409.52194	419.84848	-1091.49231	96.39125	376.22400	-1100.00903	105.11365	279.60266	-1021.37769	83.31080	325.11139	-1243.29688	41.85299	381.23376	-1268.75256	72.81809	312.24860	-1237.25659	52.25875	268.34647	-965.75110	1086.35486	212.79169	-1208.53857	990.34015	127.75951	-1226.00464	642.08594	49.52601	-1234.26990	598.81549	53.83154	-1286.61890	648.61359	55.51537	-1287.97742	604.55133	59.75508	-1258.62781	567.59930	68.50292	-1289.77136	568.04138	192.14816	-1186.58545	539.23627	63.17187	-1163.62878	504.96262	51.22358	-1234.59509	498.16165	64.91484	-1201.49023	466.68518	53.54008	-985.50122	249.96208	102.51695	0.00000	0.00000	0.00000	-915.99554	257.09015	153.75246	-1051.64966	91.18862	208.40753	-1087.63574	88.60527	161.96852	-1042.79309	81.22628	93.00830
1304	5.21200	-967.27692	1084.59265	296.25195	-1199.24268	988.65771	425.76767	-1153.55811	634.85828	451.50427	-1164.73242	592.88812	449.05573	-1213.65747	643.61713	434.21426	-1214.18115	599.62854	432.92978	-1161.19141	547.18585	438.66211	-1182.42834	548.28375	283.24829	-1113.92114	464.37366	433.23251	-1113.47888	415.99146	429.45703	-1175.51465	455.15942	426.72894	-1163.75928	409.57883	419.48044	-1091.57117	96.49973	376.20450	-1100.10486	105.13036	279.53610	-1021.43506	83.39079	325.06366	-1243.30042	41.82578	381.23438	-1268.78467	72.75661	312.24307	-1237.30420	52.20120	268.36462	-971.19244	1086.66455	212.69017	-1214.29810	991.45642	128.00522	-1234.35339	643.62140	50.07273	-1243.13647	600.38013	54.44212	-1295.03809	650.72528	56.21124	-1296.76331	606.63837	60.46274	-1268.02258	569.18884	69.09505	-1298.68469	570.19592	192.74916	-1195.99060	539.74719	63.79360	-1173.52258	505.07736	51.81937	-1244.68591	499.62051	65.50764	-1212.19080	467.54361	54.04084	-1000.24561	246.33533	102.64721	0.00000	0.00000	0.00000	-930.40692	251.42334	153.85718	-1070.90271	89.74631	208.86909	-1106.85974	88.06277	162.07101	-1062.15820	79.20912	93.17148
1305	5.21600	-972.44250	1084.84937	296.00058	-1204.64441	988.95294	425.69412	-1155.47290	634.87378	451.07538	-1166.18994	592.81305	448.65756	-1215.63074	643.10156	433.97830	-1215.80786	599.12115	432.66864	-1162.43445	547.25159	438.16174	-1183.67139	548.11945	282.72122	-1114.92505	464.57083	432.79858	-1114.40112	416.18762	429.03247	-1176.50513	455.18036	426.31339	-1164.65869	409.61188	419.10568	-1091.63318	96.59578	376.12454	-1100.17737	105.15717	279.46933	-1021.45941	83.49770	324.99695	-1243.34229	41.82285	381.19891	-1268.79858	72.66092	312.20825	-1237.34521	52.14874	268.35037	-976.55066	1086.99341	212.51698	-1219.95996	992.49908	128.35783	-1242.64722	645.07159	50.64555	-1251.84741	601.92853	55.06237	-1303.26184	652.76007	56.85276	-1305.41345	608.70978	61.18146	-1277.27161	570.74725	69.74063	-1307.34485	572.23309	193.26045	-1205.22998	540.23132	64.46329	-1183.44641	505.14429	52.41170	-1254.55493	500.98157	66.06075	-1222.73730	468.30243	54.54713	-1015.18225	242.61002	102.76274	0.00000	0.00000	0.00000	-944.95715	245.74968	154.06374	-1090.36719	88.28429	208.99980	-1126.79089	87.70115	161.88972	-1081.58679	77.24353	93.36591
1306	5.22000	-977.72626	1085.06421	295.67819	-1209.40234	988.52454	426.40695	-1157.64221	634.74304	450.80905	-1167.74438	592.75806	448.24860	-1217.63049	642.62970	433.70779	-1217.41272	598.68140	432.41571	-1163.64307	547.28894	437.64401	-1184.89807	547.97302	282.19757	-1115.93933	464.73563	432.33658	-1115.24805	416.36816	428.63049	-1177.51831	455.21078	425.84793	-1165.55396	409.63501	418.69144	-1091.70129	96.70316	376.06467	-1100.24329	105.21306	279.40344	-1021.55157	83.58426	324.92947	-1243.35986	41.80976	381.18271	-1268.88330	72.59134	312.19067	-1237.38513	52.09464	268.32520	-981.94629	1087.26685	212.36569	-1225.89465	993.53876	128.65857	-1250.89355	646.45374	51.22903	-1260.39185	603.34088	55.65890	-1311.35327	654.73438	57.49524	-1313.95691	610.72565	61.85711	-1286.71765	572.21289	71.10048	-1316.03760	574.22632	193.77422	-1214.35852	540.58099	65.09705	-1193.26025	505.12671	52.99899	-1264.47766	502.28671	66.63022	-1232.99866	469.01923	54.94994	-1030.24756	238.88083	102.86979	0.00000	0.00000	0.00000	-959.88574	239.91393	154.31313	-1110.00952	86.74545	209.05505	-1146.00562	87.18705	162.01213	-1101.40051	75.33372	93.48969
1307	5.22400	-982.93164	1085.20129	295.30453	-1213.71069	988.11359	427.21500	-1159.27966	634.92664	450.30710	-1169.21277	592.65778	447.79355	-1219.57788	642.11652	433.46863	-1218.76013	597.87109	431.71268	-1164.80774	547.33527	437.12338	-1186.17041	547.79437	281.70673	-1116.91772	464.93790	431.85718	-1116.13477	416.53513	428.22229	-1178.45105	455.23544	425.42383	-1166.35535	409.68320	418.26935	-1091.76758	96.78650	375.98468	-1100.53186	105.27652	278.85257	-1021.23474	83.86018	325.02640	-1243.40930	41.79912	381.16486	-1268.89978	72.50621	312.08655	-1237.47974	52.04919	268.29636	-987.29297	1087.47400	212.17511	-1231.51953	994.46552	129.02856	-1259.06311	647.75012	51.74282	-1268.79053	604.61072	56.25108	-1319.43298	656.62122	58.15985	-1322.39734	612.61731	62.54629	-1295.64233	573.62524	71.76827	-1324.50647	576.17902	194.30089	-1223.40125	540.82867	65.73656	-1202.94580	505.01166	53.57588	-1274.15503	503.52777	67.15677	-1243.66479	469.66281	55.57384	-1045.59595	234.93927	103.07158	0.00000	0.00000	0.00000	-974.89575	234.05687	154.56714	-1129.56750	85.31764	209.04662	-1165.24329	86.70226	162.05249	-1120.73621	73.42079	93.72519
1308	5.22800	-988.07874	1085.32910	294.90573	-1218.81128	988.25873	427.48938	-1161.15613	634.90405	449.86603	-1170.72510	592.61414	447.32645	-1221.46423	641.63672	433.20285	-1220.29004	597.37683	431.38293	-1165.94360	547.42010	436.56271	-1187.46912	547.58777	281.21042	-1117.83655	465.11230	431.41544	-1117.00671	416.71130	427.82574	-1179.39514	455.25894	424.97037	-1167.19727	409.74030	417.89304	-1091.79907	96.89272	375.91208	-1100.60913	105.28828	278.76114	-1021.10840	83.94567	324.84161	-1243.38867	41.78661	381.15982	-1269.00684	72.42773	312.11539	-1237.77991	52.37877	268.25058	-992.70917	1087.63770	211.99774	-1237.37903	995.40167	129.36865	-1266.99707	648.96234	52.25511	-1278.03992	605.69183	57.47956	-1327.29468	658.40289	58.78335	-1330.67676	614.42310	63.22809	-1303.17969	576.60229	71.62997	-1333.74683	578.57721	195.28525	-1232.36523	540.90735	66.32723	-1212.56458	504.70090	54.13332	-1283.81470	504.62936	67.70660	-1253.93005	470.17850	56.08479	-1060.77136	231.09221	103.18529	0.00000	0.00000	0.00000	-990.18304	228.08301	154.89011	-1149.24536	83.99709	209.17871	-1184.77637	86.33579	162.29022	-1140.39624	71.64648	93.86987
